<?xml version="1.0" standalone="no"?>
<!DOCTYPE svg PUBLIC "-//W3C//DTD SVG 20010904//EN"
 "http://www.w3.org/TR/2001/REC-SVG-20010904/DTD/svg10.dtd">
<svg version="1.0" xmlns="http://www.w3.org/2000/svg"
 width="260.000000pt" height="260.000000pt" viewBox="0 0 260.000000 260.000000"
 preserveAspectRatio="xMidYMid meet">
<metadata>
Created by potrace 1.11, written by Peter Selinger 2001-2013
</metadata>
<g transform="translate(0.000000,260.000000) scale(0.100000,-0.100000)"
fill="#000000" stroke="none">
<path d="M1330 1335 l1265 -1265 3 212 2 213 -1052 1052 -1053 1053 -215 0
-215 0 1265 -1265z"/>
<path d="M1615 1620 l980 -980 3 207 2 208 -772 772 -773 773 -210 0 -210 0
980 -980z"/>
<path d="M1895 1900 l700 -700 3 212 2 213 -487 487 -488 488 -215 0 -215 0
700 -700z"/>
<path d="M2180 2185 l415 -415 3 207 2 207 -207 208 -208 208 -210 0 -210 0
415 -415z"/>
<path d="M2465 2470 c71 -71 131 -130 132 -130 2 0 3 59 3 130 l0 130 -132 0
-133 0 130 -130z"/>
<path d="M0 2315 l0 -210 1053 -1053 1052 -1052 208 2 207 3 -1260 1260 -1260
1260 0 -210z"/>
<path d="M0 1750 l0 -215 768 -768 767 -767 213 2 212 3 -980 980 -980 980 0
-215z"/>
<path d="M0 1185 l0 -210 488 -488 487 -487 208 2 207 3 -695 695 -695 695 0
-210z"/>
<path d="M0 615 l0 -210 203 -203 203 -202 207 2 207 3 -410 410 -410 410 0
-210z"/>
<path d="M0 130 l0 -130 132 0 133 0 -130 130 c-71 72 -131 130 -132 130 -2 0
-3 -58 -3 -130z"/>
</g>
</svg>
